# xmcd CD database file
#
# Track frame offsets:
#	180
#	13430
#	26641
#	38844
#	54257
#	68648
#	80607
#	92065
#	107115
#	120693
#
# Disc length: 1806 seconds
#
# Revision: 0
# Processed by: cddbd v1.4PL0 Copyright (c) Steve Scherf et al.
# Submitted via: CdAid 2001.05.15.01
#
DISCID=7f070c0a
DTITLE=Karree J. Phillips - Pure Energy
DYEAR=1900
DGENRE=
TTITLE0=Gonna Miss That Man
TTITLE1=Totally Hot
TTITLE2=All I've Ever Wanted
TTITLE3=New Way Out
TTITLE4=Crank My Tractor
TTITLE5=Dog On The Dash
TTITLE6=Broken Heart Walkin'
TTITLE7=No Heart At All
TTITLE8=Roses For No Reason
TTITLE9=For Me It's You
EXTD=
EXTT0=
EXTT1=
EXTT2=
EXTT3=
EXTT4=
EXTT5=
EXTT6=
EXTT7=
EXTT8=
EXTT9=
PLAYORDER=
